<mxfile host="app.diagrams.net" modified="2022-03-11T03:58:36.681Z" agent="5.0 (Macintosh; Intel Mac OS X 10_15_7) AppleWebKit/537.36 (KHTML, like Gecko) Chrome/99.0.4844.51 Safari/537.36" etag="o3_LwwAynx8NMXyZoO0_" version="17.0.0" type="github">
  <diagram id="kwEa-XvYPqHJNM9P5Y8y" name="Page-1">
    <mxGraphModel dx="2079" dy="808" grid="0" gridSize="10" guides="1" tooltips="1" connect="1" arrows="1" fold="1" page="1" pageScale="1" pageWidth="827" pageHeight="1169" math="0" shadow="0">
      <root>
        <mxCell id="0" />
        <mxCell id="1" parent="0" />
        <mxCell id="xIzXu2N2-aK4Hv0oXQ2q-3" value="" style="edgeStyle=orthogonalEdgeStyle;rounded=0;orthogonalLoop=1;jettySize=auto;html=1;" edge="1" parent="1" source="xIzXu2N2-aK4Hv0oXQ2q-1" target="xIzXu2N2-aK4Hv0oXQ2q-2">
          <mxGeometry relative="1" as="geometry">
            <Array as="points">
              <mxPoint x="224" y="406" />
              <mxPoint x="93" y="406" />
            </Array>
          </mxGeometry>
        </mxCell>
        <mxCell id="xIzXu2N2-aK4Hv0oXQ2q-7" value="女儿" style="edgeLabel;html=1;align=center;verticalAlign=middle;resizable=0;points=[];" vertex="1" connectable="0" parent="xIzXu2N2-aK4Hv0oXQ2q-3">
          <mxGeometry x="-0.025" y="2" relative="1" as="geometry">
            <mxPoint as="offset" />
          </mxGeometry>
        </mxCell>
        <mxCell id="xIzXu2N2-aK4Hv0oXQ2q-5" value="" style="edgeStyle=orthogonalEdgeStyle;rounded=0;orthogonalLoop=1;jettySize=auto;html=1;endArrow=none;endFill=0;" edge="1" parent="1" source="xIzXu2N2-aK4Hv0oXQ2q-1" target="xIzXu2N2-aK4Hv0oXQ2q-4">
          <mxGeometry relative="1" as="geometry">
            <Array as="points">
              <mxPoint x="231" y="248" />
            </Array>
          </mxGeometry>
        </mxCell>
        <mxCell id="xIzXu2N2-aK4Hv0oXQ2q-6" value="夫妻" style="edgeLabel;html=1;align=center;verticalAlign=middle;resizable=0;points=[];" vertex="1" connectable="0" parent="xIzXu2N2-aK4Hv0oXQ2q-5">
          <mxGeometry x="0.25" y="1" relative="1" as="geometry">
            <mxPoint x="3" y="3" as="offset" />
          </mxGeometry>
        </mxCell>
        <mxCell id="xIzXu2N2-aK4Hv0oXQ2q-12" value="" style="edgeStyle=orthogonalEdgeStyle;rounded=0;orthogonalLoop=1;jettySize=auto;html=1;endArrow=classic;endFill=1;" edge="1" parent="1" source="xIzXu2N2-aK4Hv0oXQ2q-1" target="xIzXu2N2-aK4Hv0oXQ2q-11">
          <mxGeometry relative="1" as="geometry" />
        </mxCell>
        <mxCell id="xIzXu2N2-aK4Hv0oXQ2q-13" value="妹妹" style="edgeLabel;html=1;align=center;verticalAlign=middle;resizable=0;points=[];" vertex="1" connectable="0" parent="xIzXu2N2-aK4Hv0oXQ2q-12">
          <mxGeometry x="-0.4062" y="3" relative="1" as="geometry">
            <mxPoint x="23" y="3" as="offset" />
          </mxGeometry>
        </mxCell>
        <mxCell id="xIzXu2N2-aK4Hv0oXQ2q-24" value="" style="edgeStyle=orthogonalEdgeStyle;rounded=0;orthogonalLoop=1;jettySize=auto;html=1;endArrow=classic;endFill=1;" edge="1" parent="1" source="xIzXu2N2-aK4Hv0oXQ2q-1" target="xIzXu2N2-aK4Hv0oXQ2q-23">
          <mxGeometry relative="1" as="geometry">
            <Array as="points">
              <mxPoint x="303" y="395" />
            </Array>
          </mxGeometry>
        </mxCell>
        <mxCell id="xIzXu2N2-aK4Hv0oXQ2q-25" value="兄弟" style="edgeLabel;html=1;align=center;verticalAlign=middle;resizable=0;points=[];" vertex="1" connectable="0" parent="xIzXu2N2-aK4Hv0oXQ2q-24">
          <mxGeometry x="0.15" y="-3" relative="1" as="geometry">
            <mxPoint x="-8" y="-3" as="offset" />
          </mxGeometry>
        </mxCell>
        <mxCell id="xIzXu2N2-aK4Hv0oXQ2q-27" style="edgeStyle=orthogonalEdgeStyle;rounded=0;orthogonalLoop=1;jettySize=auto;html=1;entryX=1;entryY=0.5;entryDx=0;entryDy=0;endArrow=classic;endFill=1;" edge="1" parent="1" source="xIzXu2N2-aK4Hv0oXQ2q-1" target="xIzXu2N2-aK4Hv0oXQ2q-26">
          <mxGeometry relative="1" as="geometry" />
        </mxCell>
        <mxCell id="xIzXu2N2-aK4Hv0oXQ2q-28" value="管家" style="edgeLabel;html=1;align=center;verticalAlign=middle;resizable=0;points=[];" vertex="1" connectable="0" parent="xIzXu2N2-aK4Hv0oXQ2q-27">
          <mxGeometry x="0.1026" y="-2" relative="1" as="geometry">
            <mxPoint as="offset" />
          </mxGeometry>
        </mxCell>
        <mxCell id="xIzXu2N2-aK4Hv0oXQ2q-42" style="edgeStyle=orthogonalEdgeStyle;rounded=0;orthogonalLoop=1;jettySize=auto;html=1;entryX=0.5;entryY=0;entryDx=0;entryDy=0;startArrow=none;startFill=0;endArrow=classic;endFill=1;" edge="1" parent="1" source="xIzXu2N2-aK4Hv0oXQ2q-1" target="xIzXu2N2-aK4Hv0oXQ2q-8">
          <mxGeometry relative="1" as="geometry">
            <Array as="points">
              <mxPoint x="237" y="381" />
              <mxPoint x="237" y="381" />
            </Array>
          </mxGeometry>
        </mxCell>
        <mxCell id="xIzXu2N2-aK4Hv0oXQ2q-43" value="儿子" style="edgeLabel;html=1;align=center;verticalAlign=middle;resizable=0;points=[];" vertex="1" connectable="0" parent="xIzXu2N2-aK4Hv0oXQ2q-42">
          <mxGeometry x="0.2273" y="-1" relative="1" as="geometry">
            <mxPoint as="offset" />
          </mxGeometry>
        </mxCell>
        <mxCell id="xIzXu2N2-aK4Hv0oXQ2q-1" value="阿迪克斯" style="rounded=1;whiteSpace=wrap;html=1;fillColor=#fff2cc;strokeColor=#d6b656;" vertex="1" parent="1">
          <mxGeometry x="209" y="298" width="120" height="60" as="geometry" />
        </mxCell>
        <mxCell id="xIzXu2N2-aK4Hv0oXQ2q-2" value="斯库特" style="rounded=1;whiteSpace=wrap;html=1;fillColor=#d5e8d4;strokeColor=#82b366;" vertex="1" parent="1">
          <mxGeometry x="23" y="448" width="120" height="60" as="geometry" />
        </mxCell>
        <mxCell id="xIzXu2N2-aK4Hv0oXQ2q-4" value="格雷厄姆" style="rounded=1;whiteSpace=wrap;html=1;" vertex="1" parent="1">
          <mxGeometry x="61" y="218" width="120" height="60" as="geometry" />
        </mxCell>
        <mxCell id="xIzXu2N2-aK4Hv0oXQ2q-8" value="杰姆" style="rounded=1;whiteSpace=wrap;html=1;fillColor=#d5e8d4;strokeColor=#82b366;" vertex="1" parent="1">
          <mxGeometry x="177" y="446" width="120" height="60" as="geometry" />
        </mxCell>
        <mxCell id="xIzXu2N2-aK4Hv0oXQ2q-15" value="" style="edgeStyle=orthogonalEdgeStyle;rounded=0;orthogonalLoop=1;jettySize=auto;html=1;endArrow=none;endFill=0;" edge="1" parent="1" source="xIzXu2N2-aK4Hv0oXQ2q-11" target="xIzXu2N2-aK4Hv0oXQ2q-14">
          <mxGeometry relative="1" as="geometry" />
        </mxCell>
        <mxCell id="xIzXu2N2-aK4Hv0oXQ2q-16" value="夫妻" style="edgeLabel;html=1;align=center;verticalAlign=middle;resizable=0;points=[];" vertex="1" connectable="0" parent="xIzXu2N2-aK4Hv0oXQ2q-15">
          <mxGeometry x="0.1" y="1" relative="1" as="geometry">
            <mxPoint x="-1" y="1" as="offset" />
          </mxGeometry>
        </mxCell>
        <mxCell id="xIzXu2N2-aK4Hv0oXQ2q-18" value="" style="edgeStyle=orthogonalEdgeStyle;rounded=0;orthogonalLoop=1;jettySize=auto;html=1;endArrow=classic;endFill=1;entryX=0;entryY=0.5;entryDx=0;entryDy=0;exitX=1;exitY=0.5;exitDx=0;exitDy=0;" edge="1" parent="1" source="xIzXu2N2-aK4Hv0oXQ2q-11" target="xIzXu2N2-aK4Hv0oXQ2q-17">
          <mxGeometry relative="1" as="geometry">
            <Array as="points">
              <mxPoint x="412" y="183" />
            </Array>
          </mxGeometry>
        </mxCell>
        <mxCell id="xIzXu2N2-aK4Hv0oXQ2q-19" value="儿子" style="edgeLabel;html=1;align=center;verticalAlign=middle;resizable=0;points=[];" vertex="1" connectable="0" parent="xIzXu2N2-aK4Hv0oXQ2q-18">
          <mxGeometry x="0.1111" y="4" relative="1" as="geometry">
            <mxPoint x="-9" y="4" as="offset" />
          </mxGeometry>
        </mxCell>
        <mxCell id="xIzXu2N2-aK4Hv0oXQ2q-11" value="亚历山德拉" style="rounded=1;whiteSpace=wrap;html=1;" vertex="1" parent="1">
          <mxGeometry x="209" y="153" width="120" height="60" as="geometry" />
        </mxCell>
        <mxCell id="xIzXu2N2-aK4Hv0oXQ2q-14" value="吉米" style="rounded=1;whiteSpace=wrap;html=1;" vertex="1" parent="1">
          <mxGeometry x="206" y="49" width="120" height="60" as="geometry" />
        </mxCell>
        <mxCell id="xIzXu2N2-aK4Hv0oXQ2q-21" value="" style="edgeStyle=orthogonalEdgeStyle;rounded=0;orthogonalLoop=1;jettySize=auto;html=1;endArrow=classic;endFill=1;" edge="1" parent="1" source="xIzXu2N2-aK4Hv0oXQ2q-17" target="xIzXu2N2-aK4Hv0oXQ2q-20">
          <mxGeometry relative="1" as="geometry" />
        </mxCell>
        <mxCell id="xIzXu2N2-aK4Hv0oXQ2q-22" value="女儿" style="edgeLabel;html=1;align=center;verticalAlign=middle;resizable=0;points=[];" vertex="1" connectable="0" parent="xIzXu2N2-aK4Hv0oXQ2q-21">
          <mxGeometry x="-0.2292" y="-3" relative="1" as="geometry">
            <mxPoint x="-3" y="-5" as="offset" />
          </mxGeometry>
        </mxCell>
        <mxCell id="xIzXu2N2-aK4Hv0oXQ2q-17" value="亨利" style="rounded=1;whiteSpace=wrap;html=1;" vertex="1" parent="1">
          <mxGeometry x="417" y="153" width="120" height="60" as="geometry" />
        </mxCell>
        <mxCell id="xIzXu2N2-aK4Hv0oXQ2q-20" value="弗朗西斯" style="rounded=1;whiteSpace=wrap;html=1;" vertex="1" parent="1">
          <mxGeometry x="417" y="46" width="120" height="60" as="geometry" />
        </mxCell>
        <mxCell id="xIzXu2N2-aK4Hv0oXQ2q-23" value="杰克" style="rounded=1;whiteSpace=wrap;html=1;" vertex="1" parent="1">
          <mxGeometry x="364" y="371" width="120" height="60" as="geometry" />
        </mxCell>
        <mxCell id="xIzXu2N2-aK4Hv0oXQ2q-26" value="卡波妮" style="rounded=1;whiteSpace=wrap;html=1;" vertex="1" parent="1">
          <mxGeometry x="-13" y="302" width="120" height="60" as="geometry" />
        </mxCell>
        <mxCell id="xIzXu2N2-aK4Hv0oXQ2q-31" value="姨妈" style="edgeStyle=orthogonalEdgeStyle;rounded=0;orthogonalLoop=1;jettySize=auto;html=1;endArrow=none;endFill=0;startArrow=classic;startFill=1;" edge="1" parent="1" source="xIzXu2N2-aK4Hv0oXQ2q-29" target="xIzXu2N2-aK4Hv0oXQ2q-30">
          <mxGeometry relative="1" as="geometry" />
        </mxCell>
        <mxCell id="xIzXu2N2-aK4Hv0oXQ2q-29" value="雷切尔" style="rounded=1;whiteSpace=wrap;html=1;" vertex="1" parent="1">
          <mxGeometry x="37" y="568" width="120" height="60" as="geometry" />
        </mxCell>
        <mxCell id="xIzXu2N2-aK4Hv0oXQ2q-30" value="迪尔·哈里斯" style="rounded=1;whiteSpace=wrap;html=1;" vertex="1" parent="1">
          <mxGeometry x="37" y="707" width="120" height="60" as="geometry" />
        </mxCell>
        <mxCell id="xIzXu2N2-aK4Hv0oXQ2q-32" value="莫迪" style="rounded=1;whiteSpace=wrap;html=1;" vertex="1" parent="1">
          <mxGeometry x="191" y="568" width="120" height="60" as="geometry" />
        </mxCell>
        <mxCell id="xIzXu2N2-aK4Hv0oXQ2q-35" value="" style="edgeStyle=orthogonalEdgeStyle;rounded=0;orthogonalLoop=1;jettySize=auto;html=1;startArrow=none;startFill=0;endArrow=classic;endFill=1;" edge="1" parent="1" source="xIzXu2N2-aK4Hv0oXQ2q-33" target="xIzXu2N2-aK4Hv0oXQ2q-34">
          <mxGeometry relative="1" as="geometry">
            <Array as="points">
              <mxPoint x="415" y="666" />
              <mxPoint x="357" y="666" />
            </Array>
          </mxGeometry>
        </mxCell>
        <mxCell id="xIzXu2N2-aK4Hv0oXQ2q-38" value="小儿子" style="edgeLabel;html=1;align=center;verticalAlign=middle;resizable=0;points=[];" vertex="1" connectable="0" parent="xIzXu2N2-aK4Hv0oXQ2q-35">
          <mxGeometry x="-0.1603" y="3" relative="1" as="geometry">
            <mxPoint x="-3" y="-3" as="offset" />
          </mxGeometry>
        </mxCell>
        <mxCell id="xIzXu2N2-aK4Hv0oXQ2q-39" style="edgeStyle=orthogonalEdgeStyle;rounded=0;orthogonalLoop=1;jettySize=auto;html=1;entryX=0.558;entryY=0.025;entryDx=0;entryDy=0;entryPerimeter=0;startArrow=none;startFill=0;endArrow=classic;endFill=1;" edge="1" parent="1" source="xIzXu2N2-aK4Hv0oXQ2q-33" target="xIzXu2N2-aK4Hv0oXQ2q-37">
          <mxGeometry relative="1" as="geometry">
            <Array as="points">
              <mxPoint x="458" y="664" />
              <mxPoint x="522" y="664" />
            </Array>
          </mxGeometry>
        </mxCell>
        <mxCell id="xIzXu2N2-aK4Hv0oXQ2q-40" value="大儿子" style="edgeLabel;html=1;align=center;verticalAlign=middle;resizable=0;points=[];" vertex="1" connectable="0" parent="xIzXu2N2-aK4Hv0oXQ2q-39">
          <mxGeometry x="0.2411" y="4" relative="1" as="geometry">
            <mxPoint x="-29" y="4" as="offset" />
          </mxGeometry>
        </mxCell>
        <mxCell id="xIzXu2N2-aK4Hv0oXQ2q-33" value="拉德利" style="rounded=1;whiteSpace=wrap;html=1;" vertex="1" parent="1">
          <mxGeometry x="379" y="568" width="120" height="60" as="geometry" />
        </mxCell>
        <mxCell id="xIzXu2N2-aK4Hv0oXQ2q-34" value="阿瑟·拉德利&lt;br&gt;（怪人）" style="rounded=1;whiteSpace=wrap;html=1;" vertex="1" parent="1">
          <mxGeometry x="297" y="704" width="120" height="60" as="geometry" />
        </mxCell>
        <mxCell id="xIzXu2N2-aK4Hv0oXQ2q-37" value="内森·拉德利" style="rounded=1;whiteSpace=wrap;html=1;" vertex="1" parent="1">
          <mxGeometry x="455" y="704" width="120" height="60" as="geometry" />
        </mxCell>
        <mxCell id="xIzXu2N2-aK4Hv0oXQ2q-41" value="汤姆·鲁滨逊&lt;br&gt;（黑人）" style="rounded=1;whiteSpace=wrap;html=1;" vertex="1" parent="1">
          <mxGeometry x="414" y="276" width="120" height="60" as="geometry" />
        </mxCell>
      </root>
    </mxGraphModel>
  </diagram>
</mxfile>
